HIERARCHY
ROOT Hips
{
	OFFSET 59.083698 -0.517322 95.602203
	CHANNELS 6 Xposition Yposition Zposition Xrotation Yrotation Zrotation
	JOINT spine
	{
		OFFSET 0.000000 -0.458068 7.965683
		CHANNELS 3 Xrotation Yrotation Zrotation
		JOINT spine1
		{
			OFFSET 0.000000 -0.000002 10.243103
			CHANNELS 3 Xrotation Yrotation Zrotation
			JOINT spine2
			{
				OFFSET 0.000000 -0.000002 9.814751
				CHANNELS 3 Xrotation Yrotation Zrotation
				JOINT Neck
				{
					OFFSET 0.000000 -1.201384 25.198601
					CHANNELS 3 Xrotation Yrotation Zrotation
					JOINT Head
					{
						OFFSET 0.000000 -0.000001 7.613144
						CHANNELS 3 Xrotation Yrotation Zrotation
						End Site
						{
							OFFSET 0.000000 6.077317 18.428101
						}
					}
				}
				JOINT RightShoulder
				{
					OFFSET -4.132702 0.575449 10.599205
					CHANNELS 3 Xrotation Yrotation Zrotation
					JOINT RightArm
					{
						OFFSET 0.000000 -0.000002 13.901794
						CHANNELS 3 Xrotation Yrotation Zrotation
						JOINT RightArmRoll
						{
							OFFSET 0.000000 -0.000001 7.017883
							CHANNELS 3 Xrotation Yrotation Zrotation
							JOINT RightForeArm
							{
								OFFSET 0.000000 -0.000003 20.440598
								CHANNELS 3 Xrotation Yrotation Zrotation
								JOINT RightForeArmRoll
								{
									OFFSET 0.000000 -0.000001 7.875153
									CHANNELS 3 Xrotation Yrotation Zrotation
									JOINT RightHand
									{
										OFFSET 0.000000 -0.000003 15.803696
										CHANNELS 3 Xrotation Yrotation Zrotation
										End Site
										{
											OFFSET 0.000000 -0.000000 0.100006
										}
									}
								}
							}
						}
					}
				}
				JOINT LeftShoulder
				{
					OFFSET 4.132702 0.575449 10.599205
					CHANNELS 3 Xrotation Yrotation Zrotation
					JOINT LeftArm
					{
						OFFSET 0.000000 -0.000002 13.901794
						CHANNELS 3 Xrotation Yrotation Zrotation
						JOINT LeftArmRoll
						{
							OFFSET 0.000000 -0.000001 7.017883
							CHANNELS 3 Xrotation Yrotation Zrotation
							JOINT LeftForeArm
							{
								OFFSET 0.000000 -0.000003 20.440598
								CHANNELS 3 Xrotation Yrotation Zrotation
								JOINT LeftForeArmRoll
								{
									OFFSET 0.000000 -0.000001 7.875153
									CHANNELS 3 Xrotation Yrotation Zrotation
									JOINT LeftHand
									{
										OFFSET 0.000000 -0.000003 15.803696
										CHANNELS 3 Xrotation Yrotation Zrotation
										End Site
										{
											OFFSET 0.000000 -0.000000 0.100006
										}
									}
								}
							}
						}
					}
				}
			}
		}
	}
	JOINT RightUpLeg
	{
		OFFSET -7.060482 1.086100 -1.294701
		CHANNELS 3 Xrotation Yrotation Zrotation
		JOINT RightUpLegRoll
		{
			OFFSET 0.000000 -0.000003 18.530800
			CHANNELS 3 Xrotation Yrotation Zrotation
			JOINT RightLeg
			{
				OFFSET 0.000000 0.000004 -22.947601
				CHANNELS 3 Xrotation Yrotation Zrotation
				JOINT RightLegRoll
				{
					OFFSET 0.000000 -0.000004 23.022598
					CHANNELS 3 Xrotation Yrotation Zrotation
					JOINT RightFoot
					{
						OFFSET 0.000000 -0.000003 19.162506
						CHANNELS 3 Xrotation Yrotation Zrotation
						JOINT RightToeBase
						{
							OFFSET 0.000000 -0.000003 16.018799
							CHANNELS 3 Xrotation Yrotation Zrotation
							End Site
							{
								OFFSET 0.006790 0.894205 7.757812
							}
						}
					}
				}
			}
		}
	}
	JOINT LeftUpLeg
	{
		OFFSET 7.060482 1.086100 -1.294701
		CHANNELS 3 Xrotation Yrotation Zrotation
		JOINT LeftUpLegRoll
		{
			OFFSET 0.000000 -0.000003 18.530899
			CHANNELS 3 Xrotation Yrotation Zrotation
			JOINT LeftLeg
			{
				OFFSET 0.000000 -0.000004 22.947502
				CHANNELS 3 Xrotation Yrotation Zrotation
				JOINT LeftLegRoll
				{
					OFFSET 0.000000 -0.000004 23.235504
					CHANNELS 3 Xrotation Yrotation Zrotation
					JOINT LeftFoot
					{
						OFFSET 0.000000 -0.000003 18.949600
						CHANNELS 3 Xrotation Yrotation Zrotation
						JOINT LeftToeBase
						{
							OFFSET 0.000000 -0.000003 16.018799
							CHANNELS 3 Xrotation Yrotation Zrotation
							End Site
							{
								OFFSET -0.030426 0.894205 7.757812
							}
						}
					}
				}
			}
		}
	}
}
MOTION
Frames: 13
Frame Time: 0.041667
62.969398 -3.527784 95.511497 3.371309 -3.293423 63.123796 -0.721068 1.221353 1.080194 2.548751 2.439407 2.164018 4.193969 2.465140 2.134617 -23.574077 41.263908 16.137645 23.320101 -33.666252 11.079968 1.782273 -22.284675 8.465404 115.999507 5.670649 113.211048 -0.000001 0.000001 -0.000004 22.652956 5.204475 -2.622774 -0.000011 0.000011 -3.002571 -4.999926 -8.000075 0.000003 -78.830184 68.912046 88.028625 -109.495493 116.805674 112.953891 -0.000007 -0.000017 -0.000000 56.243336 9.693187 -2.162902 -0.000008 -0.000020 2.999989 -4.999803 7.999389 -0.000043 10.230794 -175.055494 5.836420 -179.999991 0.000005 -1.234004 167.316999 -0.003899 -0.615878 0.000005 0.000003 0.577795 74.608793 6.738860 2.150834 34.340999 -6.903287 3.485785 -9.970586 177.359427 0.643116 -0.000019 -0.000003 -0.981451 -10.975169 2.522928 0.515781 -0.000004 -0.000001 -0.106527 67.958627 -6.930889 -2.111313 25.456950 7.355613 0.000001 
62.958904 -3.523942 95.508499 3.347195 -3.253312 63.134266 -0.716020 1.206356 1.064106 2.560786 2.409574 2.131676 4.205995 2.434933 2.102631 -23.543507 41.330171 16.165886 23.133953 -33.715159 11.052219 1.941986 -22.846032 8.566038 116.412446 5.310154 113.099579 0.000000 -0.000000 -0.000002 23.137879 4.724664 -2.572285 -0.000010 0.000010 -3.002565 -4.999925 -8.000076 -0.000002 -78.596920 68.770088 87.823611 -109.240318 116.658716 112.836590 -0.000007 -0.000018 -0.000000 56.209919 9.732716 -2.183025 -0.000008 -0.000021 2.999990 -4.999806 7.999389 -0.000045 10.205297 -175.094468 5.820083 -179.999991 0.000005 -1.235005 167.331999 -0.029264 -0.616576 0.000006 0.000002 0.575881 74.606764 6.739468 2.149241 34.355582 -6.906061 3.464040 -10.009560 177.318391 0.639585 -0.000020 -0.000004 -0.981510 -10.975134 2.506847 0.514947 -0.000004 -0.000001 -0.107254 67.976618 -6.930587 -2.109524 25.456955 7.355613 -0.000001 
62.945900 -3.507765 95.489693 3.324239 -3.213292 63.144744 -0.710983 1.191529 1.048215 2.572681 2.380051 2.099729 4.217892 2.405017 2.071045 -23.513782 41.390796 16.194747 22.953025 -33.753719 11.025142 2.101564 -23.389262 8.670792 116.817668 4.946254 112.993650 0.000000 -0.000000 -0.000001 23.606747 4.253078 -2.515592 -0.000010 0.000011 -3.002567 -4.999926 -8.000075 0.000002 -78.365513 68.627835 87.620255 -108.983543 116.514886 112.718468 -0.000008 -0.000016 -0.000001 56.171882 9.774113 -2.204118 -0.000006 -0.000021 2.999991 -4.999803 7.999387 -0.000044 10.177226 -175.131460 5.804531 -179.999991 0.000005 -1.235004 167.343787 -0.054641 -0.617271 0.000007 0.000003 0.574207 74.609114 6.739854 2.147852 34.367251 -6.909083 3.441656 -10.046928 177.279308 0.635965 -0.000020 -0.000004 -0.981488 -10.970000 2.492075 0.514000 -0.000004 -0.000001 -0.107805 67.991350 -6.930306 -2.107843 25.456952 7.355614 -0.000000 
62.919102 -3.521816 95.491196 3.303235 -3.173606 63.155979 -0.705971 1.177041 1.032753 2.584377 2.351209 2.068644 4.229583 2.375820 2.040299 -23.486135 41.447500 16.224930 22.779480 -33.782382 10.999038 2.261319 -23.905170 8.782265 117.214092 4.579749 112.902392 0.000000 -0.000001 -0.000001 24.058657 3.797465 -2.454725 -0.000010 0.000011 -3.002570 -4.999925 -8.000077 0.000002 -78.141701 68.487420 87.424092 -108.730348 116.376397 112.603988 -0.000008 -0.000017 -0.000000 56.127629 9.818195 -2.226777 -0.000009 -0.000019 2.999989 -4.999809 7.999388 -0.000045 10.146480 -175.166430 5.789576 -179.999991 0.000005 -1.235999 167.350686 -0.080007 -0.617955 0.000003 0.000002 0.572868 74.615896 6.740089 2.146676 34.376612 -6.912221 3.419073 -10.081486 177.242180 0.632611 -0.000020 -0.000004 -0.981357 -10.956881 2.479087 0.512840 -0.000004 -0.000001 -0.108098 68.001391 -6.930102 -2.106371 25.456948 7.355610 0.000001 
62.896103 -3.509716 95.481102 3.284975 -3.134511 63.168718 -0.700992 1.163102 1.017929 2.595796 2.323466 2.038851 4.241007 2.347711 2.010843 -23.461457 41.501879 16.256853 22.615263 -33.801688 10.974100 2.421491 -24.384656 8.902936 117.601159 4.210636 112.832396 0.000001 0.000001 -0.000003 24.492720 3.365460 -2.392116 -0.000011 0.000011 -3.002570 -4.999923 -8.000078 0.000003 -77.930082 68.351117 87.239261 -108.486128 116.245476 112.497785 -0.000007 -0.000017 -0.000000 56.075409 9.865786 -2.250963 -0.000007 -0.000019 2.999992 -4.999804 7.999389 -0.000042 10.112565 -175.199393 5.775009 -179.999991 0.000005 -1.236003 167.351273 -0.103427 -0.618207 0.000004 0.000003 0.571960 74.627596 6.740080 2.145672 34.384053 -6.915412 3.396743 -10.112007 177.208957 0.629513 -0.000019 -0.000004 -0.981083 -10.933169 2.468367 0.511379 -0.000004 -0.000001 -0.108043 68.005332 -6.929953 -2.105194 25.456957 7.355614 -0.000001 
62.879902 -3.509895 95.458794 3.270264 -3.096260 63.183826 -0.696068 1.149915 1.003977 2.606866 2.297213 2.010794 4.252066 2.321121 1.983103 -23.440776 41.555496 16.291048 22.462365 -33.811957 10.950471 2.582276 -24.818723 9.035189 117.978185 3.840331 112.792644 0.000000 -0.000000 -0.000002 24.907615 2.964617 -2.330270 -0.000011 0.000010 -3.002572 -4.999924 -8.000077 0.000004 -77.735373 68.221473 87.070179 -108.256360 116.124363 112.404635 -0.000007 -0.000017 0.000000 56.013538 9.917743 -2.277145 -0.000007 -0.000021 2.999989 -4.999806 7.999388 -0.000043 10.075082 -175.229364 5.760769 -179.999991 0.000005 -1.236002 167.343965 -0.125868 -0.619260 0.000002 0.000002 0.571572 74.644385 6.739883 2.144940 34.390467 -6.918536 3.375154 -10.137297 177.179656 0.627013 -0.000020 -0.000004 -0.980629 -10.896067 2.460396 0.509529 -0.000004 -0.000001 -0.107558 68.001760 -6.929953 -2.104319 25.456953 7.355615 -0.000001 
62.848801 -3.502036 95.466202 3.259885 -3.059081 63.201947 -0.691209 1.137667 0.991113 2.617510 2.272838 1.984920 4.262710 2.296437 1.957529 -23.425192 41.610113 16.328122 22.322641 -33.813951 10.928350 2.743771 -25.197883 9.181283 118.344967 3.469412 112.790329 -0.000002 -0.000001 0.000002 25.302137 2.602523 -2.271958 -0.000011 0.000014 -3.002567 -4.999924 -8.000077 0.000003 -77.562631 68.100695 86.921718 -108.046831 116.015162 112.329571 -0.000007 -0.000018 -0.000000 55.940267 9.974957 -2.305551 -0.000007 -0.000020 2.999990 -4.999811 7.999389 -0.000042 10.033663 -175.255359 5.746832 -179.999991 0.000005 -1.235000 167.327258 -0.144400 -0.620475 0.000004 0.000003 0.571800 74.666562 6.739511 2.144262 34.396180 -6.921500 3.354743 -10.156026 177.156201 0.625089 -0.000020 -0.000004 -0.979967 -10.842877 2.455648 0.507193 -0.000004 -0.000001 -0.106547 67.989274 -6.930022 -2.103916 25.456955 7.355615 0.000001 
62.838001 -3.502605 95.474396 3.254622 -3.023245 63.223933 -0.686431 1.126569 0.979548 2.627659 2.250743 1.961682 4.272863 2.274068 1.934549 -23.415837 41.667169 16.368635 22.198159 -33.807906 10.907844 2.905999 -25.513040 9.343356 118.701448 3.098948 112.832990 -0.000001 -0.000001 0.000001 25.675040 2.286632 -2.220163 -0.000010 0.000011 -3.002570 -4.999923 -8.000074 -0.000001 -77.416048 67.991241 86.797791 -107.863611 115.920031 112.277962 -0.000008 -0.000017 -0.000000 55.853916 10.038255 -2.336437 -0.000008 -0.000020 2.999990 -4.999806 7.999389 -0.000045 9.987940 -175.278323 5.732801 -179.999991 0.000005 -1.235003 167.299555 -0.159989 -0.622055 0.000004 0.000003 0.572741 74.694532 6.738838 2.143994 34.401966 -6.924217 3.335984 -10.167087 177.139563 0.623921 -0.000019 -0.000004 -0.979067 -10.770799 2.454596 0.504267 -0.000004 -0.000001 -0.104937 67.966338 -6.930321 -2.104017 25.456955 7.355614 -0.000001 
62.813499 -3.492635 95.464897 3.253907 -2.988043 63.247395 -0.681769 1.116321 0.968795 2.637230 2.230347 1.940064 4.282428 2.253408 1.913174 -23.413110 41.723317 16.414043 22.087186 -33.790028 10.890223 3.069478 -25.766894 9.520795 119.048367 2.728624 112.919269 -0.000001 0.000001 0.000000 26.027985 2.013572 -2.176173 -0.000010 0.000011 -3.002567 -4.999923 -8.000076 -0.000002 -77.289608 67.888071 86.693262 -107.696019 115.836730 112.239433 -0.000007 -0.000016 -0.000001 55.755039 10.106517 -2.369061 -0.000007 -0.000019 2.999992 -4.999806 7.999389 -0.000044 9.935226 -175.296286 5.719624 -179.999991 0.000005 -1.232995 167.258547 -0.173620 -0.623264 0.000004 0.000004 0.574510 74.731688 6.737828 2.144032 34.404612 -6.926929 3.318008 -10.169288 177.128730 0.622274 -0.000019 -0.000004 -0.977919 -10.676339 2.458183 0.500706 -0.000004 -0.000001 -0.102656 67.931668 -6.930719 -2.104574 25.456953 7.355616 -0.000001 
62.799301 -3.485454 95.463997 3.256191 -2.952533 63.269197 -0.677249 1.106423 0.958132 2.646221 2.210633 1.918615 4.291426 2.233447 1.891978 -23.416472 41.773171 16.465187 21.985510 -33.756069 10.876264 3.234279 -25.973135 9.709732 119.387103 2.357612 113.038401 -0.000001 -0.000000 0.000002 26.363861 1.770721 -2.138792 -0.000011 0.000010 -3.002568 -4.999924 -8.000078 0.000004 -77.171917 67.783931 86.598309 -107.528577 115.760450 112.199743 -0.000007 -0.000017 -0.000000 55.646029 10.177734 -2.402443 -0.000007 -0.000019 2.999990 -4.999805 7.999392 -0.000043 9.873633 -175.310192 5.707931 -179.999991 0.000005 -1.231995 167.203932 -0.186251 -0.625308 0.000002 0.000002 0.577111 74.780832 6.736391 2.144495 34.400422 -6.929998 3.299484 -10.162952 177.120821 0.618983 -0.000021 -0.000005 -0.976561 -10.559395 2.466652 0.496566 -0.000004 -0.000001 -0.099768 67.885599 -6.931301 -2.105583 25.456950 7.355612 0.000001 
62.777599 -3.473692 95.449791 3.261187 -2.916845 63.289824 -0.672835 1.096844 0.947613 2.654723 2.191577 1.897479 4.299926 2.214136 1.871063 -23.424699 41.817133 16.520865 21.892701 -33.707397 10.865574 3.399662 -26.136880 9.907952 119.719146 1.986415 113.185407 -0.000001 0.000001 0.000000 26.682496 1.553882 -2.107434 -0.000011 0.000011 -3.002572 -4.999925 -8.000078 0.000004 -77.061316 67.679313 86.511005 -107.361606 115.690482 112.159499 -0.000008 -0.000017 -0.000001 55.527908 10.251789 -2.436480 -0.000008 -0.000020 2.999990 -4.999801 7.999387 -0.000044 9.804578 -175.320055 5.697617 -179.999991 0.000006 -1.230006 167.137912 -0.200824 -0.627851 0.000004 0.000002 0.580424 74.840268 6.734581 2.145093 34.390385 -6.933357 3.280426 -10.149489 177.114783 0.614588 -0.000019 -0.000005 -0.975015 -10.423662 2.479251 0.491904 -0.000004 -0.000000 -0.096351 67.829796 -6.931988 -2.107027 25.456953 7.355612 0.000000 
62.765301 -3.459409 95.454300 3.268580 -2.881091 63.309665 -0.668507 1.087596 0.937301 2.662837 2.173163 1.876750 4.308039 2.195476 1.850562 -23.436993 41.855652 16.580204 21.808283 -33.645286 10.857611 3.564866 -26.263349 10.113271 120.045574 1.614989 113.354052 0.000000 0.000001 0.000003 26.983714 1.358979 -2.081296 -0.000010 0.000014 -3.002566 -4.999923 -8.000078 -0.000001 -76.956991 67.574900 86.430259 -107.196383 115.626237 112.120321 -0.000007 -0.000017 -0.000000 55.401809 10.328650 -2.471373 -0.000008 -0.000020 2.999989 -4.999804 7.999388 -0.000044 9.729448 -175.327869 5.688207 -179.999991 0.000005 -1.226997 167.062616 -0.214411 -0.631247 0.000002 0.000003 0.584327 74.908262 6.732451 2.146138 34.375635 -6.936967 3.260940 -10.130385 177.112652 0.609086 -0.000020 -0.000004 -0.973311 -10.272443 2.495235 0.486755 -0.000004 -0.000001 -0.092494 67.765845 -6.932763 -2.108801 25.456952 7.355616 -0.000002 
62.755699 -3.459218 95.447403 3.278051 -2.845415 63.329398 -0.664232 1.078658 0.927256 2.670641 2.155369 1.856578 4.315843 2.177444 1.830594 -23.452214 41.889062 16.642038 21.731656 -33.571141 10.851872 3.729195 -26.357466 10.323582 120.367645 1.244707 113.541581 0.000002 0.000000 -0.000002 27.267495 1.181883 -2.059509 -0.000011 0.000011 -3.002568 -4.999925 -8.000074 -0.000001 -76.857503 67.471286 86.354478 -107.033545 115.567033 112.083152 -0.000007 -0.000017 -0.000001 55.268573 10.408308 -2.506972 -0.000007 -0.000021 2.999988 -4.999802 7.999389 -0.000044 9.649713 -175.331707 5.679927 -179.999991 0.000005 -1.225001 166.979998 -0.227982 -0.633711 0.000004 0.000002 0.588699 74.983012 6.730076 2.147450 34.356955 -6.940767 3.241034 -10.106855 177.112433 0.603202 -0.000020 -0.000005 -0.971470 -10.109329 2.513887 0.481188 -0.000004 -0.000001 -0.088285 67.695412 -6.933601 -2.110899 25.456953 7.355615 -0.000002 
